<svg width="36" height="94" viewBox="0 0 36 94" fill="none" xmlns="http://www.w3.org/2000/svg">
<path d="M35.5097 87.8999H2.17969V93.3099H35.5097V87.8999Z" fill="white" fill-opacity="0.5"/>
<path fill-rule="evenodd" clip-rule="evenodd" d="M30.38 75.3698V53.8197C30.38 50.2697 29.31 47.6998 27.16 46.1198C25.01 44.5298 21.98 43.7397 18.06 43.7397C16.07 43.7397 13.84 43.9597 11.38 44.3897C8.92 44.8297 6.35 45.4797 3.68 46.3497L4.24 54.7497H8.07L8.78 49.4597C10.34 48.8997 11.13 48.7397 12.6 48.4897C14.06 48.2397 15.42 48.1198 16.66 48.1198C19.09 48.1198 20.98 48.6497 22.36 49.7097C23.73 50.7697 24.41 52.4497 24.41 54.7497V60.2598H15.63C12.95 60.2598 10.6 60.5597 8.58 61.1497C6.56 61.7397 4.95 62.7497 3.77 64.1797C2.59 65.6097 2 67.5697 2 70.0597C2 73.2997 2.93 75.8198 4.8 77.6198C6.67 79.4298 9.06 80.3298 11.99 80.3298C14.29 80.3298 16.63 79.7697 18.99 78.6497C21.35 77.5297 23.11 76.3497 25.04 74.2897L25.71 80.0498L35.51 79.6797V76.5997L30.38 75.3698ZM24.4 71.4697C22.59 72.9597 21.18 73.7697 19.22 74.6397C17.26 75.5097 15.47 75.9497 13.85 75.9497C12.11 75.9497 10.69 75.3797 9.6 74.2197C8.51 73.0697 7.97 71.5297 7.97 69.5997C7.97 68.1097 8.26 66.9597 8.86 66.1497C9.45 65.3397 10.21 64.7298 11.15 64.3298C12.08 63.9298 13.02 63.6798 13.95 63.5798C14.88 63.4898 15.72 63.4398 16.47 63.4398H24.41V71.4697H24.4Z" fill="white" fill-opacity="0.5"/>
<path fill-rule="evenodd" clip-rule="evenodd" d="M8.57891 35.2899C11.1289 36.7299 14.0189 37.4499 17.2689 37.4499C19.6089 37.4499 22.0489 37.0299 24.5989 36.1899C27.1489 35.3499 29.6489 34.0599 32.1189 32.3399L29.9589 28.7699C27.8689 30.0899 25.8389 31.0799 23.8889 31.7599C21.9389 32.4399 20.0989 32.7799 18.3789 32.7799C16.1589 32.7799 14.1889 32.2199 12.4589 31.1199C10.7389 30.0099 9.37891 28.4099 8.38891 26.3099C7.39891 24.2199 6.90891 21.6499 6.90891 18.6099C6.90891 15.7299 7.37891 13.2999 8.32891 11.3099C9.26891 9.31986 10.6389 7.80986 12.4289 6.77986C14.2189 5.74986 16.3789 5.23986 18.9289 5.23986C20.1589 5.23986 21.4789 5.35986 22.8689 5.60986C24.2689 5.85986 24.8489 5.89986 26.3289 6.42986L27.3689 12.0799H31.1889L31.6789 3.44986C29.3789 2.50986 27.1189 1.79986 24.8989 1.31986C22.6789 0.849862 20.5689 0.609863 18.5489 0.609863C15.0589 0.609863 11.9489 1.29986 9.21891 2.66986C6.48891 4.04986 4.32891 6.09986 2.74891 8.82986C1.16891 11.5599 0.378906 14.9399 0.378906 18.9699C0.378906 22.9999 1.10891 26.2599 2.56891 29.0099C4.02891 31.7599 6.02891 33.8599 8.57891 35.2999V35.2899Z" fill="white" fill-opacity="0.5"/>
</svg>
