<svg width="100" height="80" viewBox="0 0 100 80" fill="none" xmlns="http://www.w3.org/2000/svg">
<g clip-path="url(#clip0_3652_12969)">
<path d="M100 0H0V80H100V0Z" fill="#F89822"/>
<path d="M39.463 56.8432C39.1148 56.9831 38.7824 57.053 38.4606 57.053C38.0333 57.053 37.6482 56.9347 37.3053 56.6926C36.9624 56.4505 36.6881 56.0954 36.4877 55.6274C36.2872 55.1593 36.187 54.5783 36.187 53.895C36.187 53.2656 36.2766 52.7276 36.4613 52.2811C36.6406 51.8345 36.8991 51.4902 37.2368 51.2481C37.5744 51.006 37.9753 50.8877 38.4501 50.8877C38.6822 50.8877 38.9354 50.92 39.2097 50.9791C39.426 51.0276 39.6423 51.0975 39.8639 51.1782L40.0591 52.3833H40.7238L40.8135 50.5649C40.3809 50.3712 39.9641 50.2313 39.5685 50.1399C39.1728 50.0484 38.793 50 38.4343 50C37.7485 50 37.1418 50.1614 36.6301 50.4842C36.1131 50.807 35.7174 51.2643 35.4273 51.8668C35.1424 52.464 35 53.1849 35 54.0295C35 54.8742 35.1424 55.6112 35.4273 56.1976C35.7122 56.784 36.0973 57.2306 36.5773 57.5318C37.0574 57.8331 37.5955 57.9891 38.1811 57.9891C38.6295 57.9891 39.0884 57.8977 39.5632 57.7201C40.0327 57.5372 40.4864 57.2575 40.9242 56.8809L40.4917 56.2138C40.1593 56.4935 39.8164 56.7033 39.4682 56.8432H39.463Z" fill="white"/>
<path d="M44.5801 51.8883C43.9998 51.8883 43.504 52.0174 43.0978 52.2703C42.6863 52.5231 42.375 52.889 42.1587 53.3624C41.9424 53.8358 41.8317 54.4007 41.8317 55.0571C41.8317 55.9932 42.0585 56.7194 42.5069 57.2252C42.9553 57.7309 43.5831 57.9837 44.3849 57.9837C44.9705 57.9837 45.4717 57.8546 45.8884 57.5964C46.3052 57.3381 46.627 56.9723 46.8485 56.4989C47.0754 56.0254 47.1862 55.4713 47.1862 54.8365C47.1862 53.9004 46.9541 53.1741 46.4898 52.6576C46.0256 52.1465 45.3873 51.8883 44.5749 51.8883H44.5801ZM45.8673 56.1277C45.746 56.472 45.5719 56.7302 45.3345 56.9077C45.0971 57.0853 44.8017 57.1714 44.4483 57.1714C43.9629 57.1714 43.5936 56.9938 43.3404 56.6334C43.0872 56.2729 42.9606 55.7295 42.9606 54.9979C42.9606 54.2662 43.0925 53.6798 43.3562 53.2871C43.62 52.8943 44.0104 52.6953 44.5274 52.6953C45.0444 52.6953 45.3978 52.8782 45.6563 53.244C45.9148 53.6099 46.0467 54.1586 46.0467 54.8903C46.0467 55.3691 45.9887 55.7833 45.8673 56.1277Z" fill="white"/>
<path d="M53.5904 53.7498C53.5957 53.1149 53.4427 52.6469 53.1209 52.3402C52.8044 52.039 52.3981 51.8829 51.9128 51.8829C51.5594 51.8829 51.1848 51.9744 50.7892 52.1465C50.4357 52.3026 50.1034 52.5447 49.7816 52.8513L49.6602 51.9475L48.009 52.0228V52.6092L48.8162 52.8029V57.0799L48.009 57.2736V57.86H50.6625V57.2736L49.9029 57.0907V53.4861C50.1561 53.244 50.4093 53.0557 50.6678 52.932C50.9527 52.7975 51.2217 52.7276 51.4644 52.7276C51.7757 52.7276 52.0236 52.8298 52.2135 53.0288C52.4034 53.2279 52.4984 53.5399 52.4984 53.9703V57.0853L51.7387 57.2736V57.86H54.3922V57.2736L53.5851 57.0799V53.739L53.5904 53.7498Z" fill="white"/>
<path d="M58.507 54.8044C58.2749 54.6807 58.027 54.5731 57.7632 54.4924C57.4994 54.4117 57.2515 54.331 57.0194 54.2503C56.7872 54.1696 56.5973 54.0674 56.4549 53.9437C56.3125 53.8199 56.2386 53.6531 56.2386 53.4379C56.2386 53.1959 56.3388 53.0022 56.5446 52.8623C56.745 52.7224 57.0088 52.6525 57.3253 52.6525C57.5944 52.6525 57.8845 52.7009 58.201 52.787L58.3382 53.5402H59.0346L59.0873 52.2006C58.7602 52.0984 58.4437 52.0177 58.1377 51.9692C57.8318 51.9154 57.5469 51.8939 57.2937 51.8939C56.9244 51.8939 56.5762 51.9531 56.2492 52.0715C55.9221 52.1898 55.6636 52.3727 55.4684 52.6256C55.2732 52.8784 55.173 53.1959 55.173 53.5886C55.173 53.9383 55.2468 54.2127 55.3893 54.4225C55.5317 54.6269 55.7216 54.7937 55.9537 54.9228C56.1858 55.0465 56.4285 55.1541 56.687 55.2348C56.9455 55.3155 57.1882 55.3962 57.4203 55.4769C57.6524 55.5576 57.8423 55.6652 57.99 55.7943C58.1377 55.9235 58.2116 56.101 58.2116 56.3216C58.2116 56.5206 58.1483 56.6874 58.0217 56.8273C57.8951 56.9618 57.7315 57.064 57.5311 57.1339C57.3306 57.1985 57.1196 57.2361 56.8927 57.2361C56.7398 57.2361 56.5709 57.2254 56.3863 57.1985C56.2333 57.177 56.1014 57.1447 55.9643 57.1124L55.8588 56.1709H55.173L55.0991 57.7365C55.4104 57.8279 55.7163 57.8925 56.0118 57.9355C56.3072 57.9786 56.5921 58.0001 56.8611 58.0001C57.3201 58.0001 57.7315 57.9302 58.1008 57.7849C58.4701 57.6396 58.7602 57.4298 58.9765 57.1608C59.1875 56.8865 59.2983 56.5529 59.2983 56.1548C59.2983 55.8159 59.2245 55.5415 59.0768 55.3263C58.929 55.1165 58.7391 54.9497 58.507 54.8206V54.8044Z" fill="white"/>
<path d="M62.9753 57.0801C62.8276 57.1231 62.6904 57.1393 62.5691 57.1393C62.3528 57.1393 62.1893 57.0693 62.0732 56.9294C61.9624 56.7896 61.9044 56.5636 61.9044 56.2516V52.7493H63.4237L63.4554 51.9961H61.8991V50.5005L60.8124 50.6888V51.9853L59.8787 52.1521V52.7493H60.8124V56.4076C60.8124 56.9348 60.9285 57.3276 61.1553 57.5858C61.3821 57.8494 61.7092 57.9785 62.126 57.9785C62.606 57.9785 63.1177 57.8279 63.6717 57.5212L63.4554 56.8918C63.2813 56.9725 63.1177 57.0317 62.97 57.0747L62.9753 57.0801Z" fill="white"/>
<path d="M66.8158 52.1788C66.5415 52.3456 66.2566 52.5769 65.9717 52.8675L65.8504 51.9583L64.1992 52.0336V52.62L65.0064 52.819V57.096L64.1992 57.2843V57.8707H67.1007V57.2843L66.0878 57.0907V53.5615C66.2777 53.3516 66.4835 53.1687 66.6997 53.0235C66.9582 52.8567 67.222 52.776 67.4858 52.776C67.5385 52.776 67.5913 52.776 67.644 52.7868C67.6651 52.7868 67.6862 52.7975 67.7073 52.7975L67.8234 53.7605H68.4881L68.562 51.9959C68.3035 51.9206 68.0555 51.8829 67.8234 51.8829C67.4594 51.8829 67.1218 51.9798 66.8053 52.1734L66.8158 52.1788Z" fill="white"/>
<path d="M74.4494 51.953L72.5449 52.0283V52.6147L73.3626 52.8084V56.3699C73.1094 56.612 72.8562 56.8003 72.5977 56.924C72.3128 57.0585 72.0438 57.1285 71.8011 57.1285C71.4899 57.1285 71.2419 57.0262 71.0573 56.8272C70.8727 56.6281 70.7777 56.3215 70.7777 55.9072V51.9584L68.8733 52.0229V52.6093L69.691 52.803V56.0901C69.691 56.725 69.8492 57.1984 70.1658 57.5104C70.4823 57.8225 70.8779 57.9785 71.358 57.9785C71.7114 57.9785 72.086 57.887 72.4816 57.7149C72.8298 57.5588 73.1622 57.3221 73.4787 57.0155L73.6053 57.9354L75.2565 57.8601V57.2737L74.4546 57.0854V51.953H74.4494Z" fill="white"/>
<path d="M79.5032 56.9884C79.2183 57.0907 78.9545 57.1445 78.7119 57.1445C78.3953 57.1445 78.1105 57.0638 77.8625 56.897C77.6146 56.7302 77.4247 56.4827 77.2822 56.1492C77.1398 55.8156 77.0712 55.4121 77.0712 54.9387C77.0712 54.4653 77.1345 54.0833 77.2664 53.7444C77.3983 53.4108 77.5882 53.1472 77.8361 52.9697C78.0841 52.7867 78.3901 52.7007 78.7435 52.7007C78.8965 52.7007 79.0653 52.7168 79.2552 52.7437C79.4082 52.7706 79.5454 52.8083 79.6773 52.8621L79.8197 53.8089H80.5371L80.5793 52.3348C80.342 52.2111 80.0518 52.1035 79.7142 52.0174C79.3766 51.9313 79.0548 51.8883 78.7435 51.8883C78.3795 51.8883 78.0313 51.9475 77.699 52.0658C77.3666 52.1842 77.0659 52.3671 76.8022 52.62C76.5384 52.8728 76.3274 53.1902 76.1691 53.583C76.0109 53.9757 75.937 54.4491 75.937 55.0033C75.937 55.6327 76.0478 56.1653 76.2694 56.6118C76.4909 57.053 76.7916 57.3973 77.1767 57.634C77.5618 57.8707 77.9891 57.9891 78.4586 57.9891C78.8332 57.9891 79.2183 57.9192 79.5981 57.7739C79.9832 57.6286 80.3683 57.4081 80.7587 57.1014L80.3789 56.515C80.0729 56.7302 79.7828 56.8862 79.4979 56.9938L79.5032 56.9884Z" fill="white"/>
<path d="M84.789 56.8972C84.6149 56.9779 84.4514 57.037 84.3037 57.0801C84.156 57.1231 84.0188 57.1393 83.8975 57.1393C83.6812 57.1393 83.5176 57.0693 83.4016 56.9294C83.2908 56.7896 83.2328 56.5636 83.2328 56.2516V52.7493H84.7521L84.7837 51.9961H83.2275V50.5005L82.1408 50.6888V51.9853L81.207 52.1521V52.7493H82.1408V56.4076C82.1408 56.9348 82.2568 57.3276 82.4837 57.5858C82.7105 57.8494 83.0376 57.9785 83.4543 57.9785C83.9344 57.9785 84.4461 57.8279 85 57.5212L84.7837 56.8918L84.789 56.8972Z" fill="white"/>
<path d="M39.2872 62.7905L38.19 62.82L35.7315 69.1797L35 69.3565V69.8918H37.6261V69.3565L36.7271 69.1748L37.1791 67.9323H39.9983L40.4098 69.1748L39.531 69.3565V69.8918H42.3451V69.3565L41.6085 69.1748L39.2922 62.7905H39.2872ZM38.6624 63.7629L39.7697 67.1908H37.428L38.6624 63.7629Z" fill="white"/>
<path d="M44.89 62.9969C45.0881 62.8201 45.3472 62.7268 45.6722 62.7268C45.8043 62.7268 45.9465 62.7416 46.0888 62.7661C46.2361 62.7956 46.3834 62.83 46.5307 62.8791L46.6983 62.1915C46.4748 62.1228 46.2666 62.0737 46.0735 62.0442C45.8805 62.0147 45.6926 62 45.5046 62C44.9103 62 44.4379 62.1572 44.0823 62.4764C43.7268 62.7956 43.549 63.2818 43.549 63.9447V64.5734L42.7413 64.7109V65.2658H43.549V69.175L42.7617 69.3517V69.887H45.5351V69.3517L44.5954 69.17V65.2609H45.977L46.0075 64.5635H44.5954V63.8465C44.5954 63.4537 44.697 63.1688 44.8951 62.992L44.89 62.9969Z" fill="white"/>
<path d="M49.0043 64.6961C48.7402 64.8484 48.4659 65.0595 48.1916 65.3247L48.0748 64.4948L46.4849 64.5635V65.0988L47.262 65.2805V69.1848L46.4849 69.3567V69.892H49.2786V69.3567L48.3034 69.1799V65.9583C48.4862 65.7667 48.6843 65.5997 48.8926 65.4672C49.1415 65.3149 49.3955 65.2412 49.6494 65.2412C49.7002 65.2412 49.751 65.2412 49.8018 65.2511C49.8221 65.2511 49.8425 65.2609 49.8628 65.2609L49.9745 66.14H50.6146L50.6857 64.5292C50.4368 64.4604 50.198 64.426 49.9745 64.426C49.624 64.426 49.299 64.5144 48.9942 64.6912L49.0043 64.6961Z" fill="white"/>
<path d="M52.4534 63.5077C52.6414 63.5077 52.7988 63.4537 52.9309 63.3407C53.0579 63.2277 53.1239 63.0657 53.1239 62.8496C53.1239 62.6335 53.063 62.4715 52.941 62.3585C52.8191 62.2456 52.6617 62.1915 52.4636 62.1915C52.2655 62.1915 52.1182 62.2456 51.9912 62.3585C51.8642 62.4715 51.8032 62.6335 51.8032 62.8496C51.8032 63.0657 51.8642 63.2228 51.9861 63.3358C52.108 63.4487 52.2655 63.5077 52.4534 63.5077Z" fill="white"/>
<path d="M53.0274 64.4996L51.2039 64.5635V65.0988L51.981 65.2707V69.1798L51.2039 69.3566V69.8968H53.8097V69.3566L53.0274 69.1798V64.4996Z" fill="white"/>
<path d="M57.8835 69.0865C57.6092 69.1798 57.3552 69.2289 57.1216 69.2289C56.8168 69.2289 56.5425 69.1553 56.3038 69.003C56.065 68.8508 55.8822 68.6249 55.745 68.3204C55.6079 68.0159 55.5418 67.6476 55.5418 67.2154C55.5418 66.7833 55.6028 66.4346 55.7298 66.1252C55.8568 65.8207 56.0396 65.5801 56.2784 65.418C56.5171 65.251 56.8117 65.1725 57.152 65.1725C57.2994 65.1725 57.4619 65.1872 57.6448 65.2118C57.7921 65.2363 57.9241 65.2707 58.0511 65.3198L58.1883 66.1841H58.8791L58.9197 64.8385C58.6912 64.7256 58.4118 64.6274 58.0867 64.5488C57.7616 64.4702 57.4517 64.4309 57.152 64.4309C56.8016 64.4309 56.4663 64.4849 56.1463 64.593C55.8263 64.701 55.5367 64.868 55.2828 65.0988C55.0288 65.3296 54.8256 65.6194 54.6732 65.9779C54.5208 66.3364 54.4497 66.7685 54.4497 67.2744C54.4497 67.849 54.5564 68.3351 54.7697 68.7428C54.9831 69.1455 55.2726 69.4598 55.6434 69.6758C56.0142 69.8919 56.4257 70 56.8777 70C57.2384 70 57.6092 69.9361 57.9749 69.8035C58.3457 69.6709 58.7166 69.4696 59.0924 69.1897L58.7267 68.6544C58.4321 68.8508 58.1527 68.9932 57.8784 69.0914L57.8835 69.0865Z" fill="white"/>
<path d="M64.2178 69.17V65.9877C64.2178 65.4475 64.0553 65.0546 63.7302 64.8041C63.4051 64.5537 62.9479 64.4309 62.3638 64.4309C62.059 64.4309 61.7238 64.4653 61.3631 64.5291C61.0025 64.593 60.6113 64.6912 60.1847 64.8189L60.2659 66.1645H60.9568L61.0583 65.364C61.2311 65.31 61.3936 65.2707 61.546 65.2412C61.739 65.2068 61.9219 65.1921 62.0946 65.1921C62.4298 65.1921 62.6889 65.2658 62.8819 65.418C63.0699 65.5703 63.1664 65.8207 63.1664 66.1743V66.9355H61.9828C61.5561 66.9355 61.1853 66.9846 60.8755 67.0779C60.5605 67.1712 60.3167 67.3284 60.144 67.5494C59.9713 67.7704 59.8799 68.0749 59.8799 68.4628C59.8799 68.9736 60.0272 69.3615 60.3167 69.6169C60.6063 69.8723 60.9517 70 61.358 70C61.6882 70 62.0235 69.9165 62.374 69.7593C62.699 69.612 62.9987 69.3861 63.2781 69.0914L63.4102 69.9607L65.0001 69.8919V69.3566L64.2128 69.1798L64.2178 69.17ZM62.4552 69.0276C62.186 69.1651 61.9422 69.2339 61.7187 69.2339C61.4952 69.2339 61.3123 69.1651 61.165 69.0276C61.0177 68.8901 60.9466 68.674 60.9466 68.3843C60.9466 68.1141 61.0329 67.9128 61.2107 67.7753C61.3885 67.6378 61.7035 67.5739 62.1657 67.5739H63.1816V68.5267C62.9479 68.7329 62.7092 68.8999 62.4654 69.0276H62.4552Z" fill="white"/>
<path d="M29.5 67.082H10.9991V70H29.5V67.082Z" fill="white"/>
<path fill-rule="evenodd" clip-rule="evenodd" d="M26.6525 60.3236V48.7001C26.6525 46.7853 26.0586 45.3991 24.8651 44.5469C23.6717 43.6893 21.9898 43.2632 19.8139 43.2632C18.7093 43.2632 17.4714 43.3818 16.106 43.6138C14.7405 43.8511 13.3139 44.2017 11.8318 44.671L12.1427 49.2017H14.2686L14.6627 46.3484C15.5287 46.0464 15.9672 45.9601 16.7831 45.8252C17.5936 45.6904 18.3485 45.6256 19.0368 45.6256C20.3856 45.6256 21.4347 45.9115 22.2007 46.4832C22.9612 47.055 23.3387 47.9611 23.3387 49.2017V52.1737H18.465C16.9774 52.1737 15.673 52.3355 14.5517 52.6537C13.4305 52.9719 12.5368 53.5167 11.8818 54.288C11.2268 55.0593 10.8993 56.1165 10.8993 57.4595C10.8993 59.2071 11.4155 60.5663 12.4535 61.5372C13.4915 62.5135 14.8182 62.9989 16.4445 62.9989C17.7212 62.9989 19.0201 62.6968 20.3301 62.0927C21.6401 61.4886 22.617 60.8522 23.6884 59.7411L24.0603 62.8479L29.5001 62.6483V60.987L26.6525 60.3236ZM23.3331 58.22C22.3284 59.0237 21.5457 59.4606 20.4578 59.9299C19.3698 60.3991 18.3762 60.6364 17.477 60.6364C16.5112 60.6364 15.7229 60.329 15.1179 59.7033C14.5129 59.083 14.2131 58.2524 14.2131 57.2114C14.2131 56.4077 14.3741 55.7875 14.7071 55.3506C15.0346 54.9137 15.4565 54.5847 15.9783 54.3689C16.4945 54.1532 17.0163 54.0183 17.5325 53.9644C18.0487 53.9158 18.515 53.8889 18.9313 53.8889H23.3387V58.22H23.3331Z" fill="white"/>
<path fill-rule="evenodd" clip-rule="evenodd" d="M14.5517 38.7055C15.9671 39.4822 17.5713 39.8706 19.3753 39.8706C20.6742 39.8706 22.0286 39.644 23.4441 39.1909C24.8595 38.7379 26.2472 38.0421 27.6183 37.1143L26.4193 35.1888C25.2592 35.9008 24.1324 36.4347 23.0499 36.8015C21.9675 37.1683 20.9462 37.3517 19.9915 37.3517C18.7592 37.3517 17.6657 37.0496 16.7054 36.4563C15.7506 35.8576 14.9957 34.9946 14.4462 33.8619C13.8967 32.7346 13.6247 31.3484 13.6247 29.7087C13.6247 28.1553 13.8856 26.8447 14.4129 25.7713C14.9347 24.698 15.6951 23.8835 16.6887 23.3279C17.6823 22.7724 18.8813 22.4973 20.2967 22.4973C20.9795 22.4973 21.7122 22.562 22.4838 22.6969C23.2609 22.8317 23.5828 22.8533 24.4043 23.1392L24.9816 26.1866H27.102L27.374 21.5318C26.0973 21.0248 24.8429 20.6419 23.6106 20.383C22.3783 20.1294 21.2071 20 20.0858 20C18.1486 20 16.4223 20.3722 14.9069 21.1111C13.3915 21.8554 12.1926 22.9612 11.3155 24.4337C10.4385 25.9062 10 27.7292 10 29.9029C10 32.0766 10.4052 33.835 11.2156 35.3182C12.026 36.8015 13.1362 37.9342 14.5517 38.7109V38.7055Z" fill="white"/>
</g>
<defs>
<clipPath id="clip0_3652_12969">
<rect width="100" height="80" fill="white"/>
</clipPath>
</defs>
</svg>
