<svg width="148" height="179" viewBox="0 0 148 179" fill="none" xmlns="http://www.w3.org/2000/svg">
<rect width="148" height="179" rx="15" fill="url(#paint0_linear_2230_10943)"/>
<path d="M95.2728 107H98.3039C101.217 107 102.674 107 103.477 106.393C104.177 105.863 104.61 105.054 104.662 104.179C104.722 103.174 103.914 101.962 102.298 99.5374L93.2667 85.9908C91.9313 83.9877 91.2636 82.9862 90.422 82.6372C89.6863 82.332 88.8594 82.332 88.1236 82.6372C87.282 82.9862 86.6144 83.9877 85.279 85.9908L83.0464 89.3396M95.2728 107L72.2194 73.7005C70.8935 71.7855 70.2306 70.8279 69.4026 70.4913C68.6782 70.1968 67.8675 70.1968 67.1431 70.4913C66.3151 70.8279 65.6522 71.7855 64.3263 73.7005L46.4875 99.4678C44.7984 101.908 43.9539 103.127 44.0019 104.142C44.0438 105.026 44.4735 105.846 45.1761 106.383C45.9829 107 47.4666 107 50.434 107H95.2728ZM101.273 62C101.273 66.9706 97.2434 71 92.2728 71C87.3023 71 83.2728 66.9706 83.2728 62C83.2728 57.0294 87.3023 53 92.2728 53C97.2434 53 101.273 57.0294 101.273 62Z" stroke="white" stroke-width="3" stroke-linecap="round" stroke-linejoin="round"/>
<defs>
<linearGradient id="paint0_linear_2230_10943" x1="74" y1="0" x2="74" y2="179" gradientUnits="userSpaceOnUse">
<stop stop-color="#CCCCCC"/>
<stop offset="1" stop-color="#CCCCCC"/>
</linearGradient>
</defs>
</svg>
