<svg width="48" height="48" viewBox="0 0 48 48" fill="none" xmlns="http://www.w3.org/2000/svg">
<path d="M31.5555 30.9221C28.6217 30.5751 27.1553 28.7352 26.8907 28.3696C26.3084 27.5658 25.6497 26.1298 25.0851 24.832C24.9146 24.44 24.3078 24.3674 24.0853 24.3547L24.002 24.3527C23.8981 24.3537 23.1159 24.3733 22.9159 24.832C22.3503 26.1289 21.6936 27.5639 21.1104 28.3696C20.8457 28.7352 19.3784 30.5761 16.4456 30.9221C15.9349 30.9838 15.3948 31.0132 14.8351 31.0132C13.6108 31.0132 12.4003 30.8701 11.424 30.6251L12.4238 34.6616L20.7399 38.0883L23.8324 38.4618L26.9034 38.0883L35.2195 34.6616L36.1977 30.7123C35.2949 30.9015 34.2344 31.0132 33.163 31.0132C32.6062 31.0132 32.0642 30.9838 31.5555 30.9221ZM27.6082 36.1368H19.9969V35.333H23.4001V33.6314C23.161 33.5941 22.9238 33.5539 22.6856 33.5078C22.3562 33.4451 22.0288 33.3765 21.7064 33.2863C21.4152 33.2069 21.1094 33.1177 20.8477 32.9619C20.3743 32.6766 20.0165 32.1267 20.3066 31.5847C20.4448 31.3279 20.6909 31.0897 20.9653 30.9848C21.276 30.8652 21.6338 30.8495 21.9641 30.8378C21.7769 30.8446 22.0906 30.8378 21.9975 30.8368H21.9808H21.9975C22.3415 30.8368 22.6826 30.8456 23.0277 30.8682C23.3345 30.8887 23.6491 30.9574 23.954 30.9221C24.6185 30.8466 25.3008 30.8015 25.9693 30.8593C26.2702 30.8858 26.6025 30.9221 26.8544 31.1044C27.0887 31.2749 27.2984 31.5053 27.3729 31.7915C27.519 32.3512 27.0446 32.8384 26.575 33.054C25.9869 33.3246 25.3086 33.4412 24.6754 33.552C24.5186 33.5794 24.3607 33.6059 24.2029 33.6314V35.333H27.6082V36.1368ZM37.7484 21.7013C37.3328 21.5738 36.7868 21.4758 36.0507 21.418C35.1724 21.3513 34.0226 21.3445 32.4945 21.42C32.4945 21.42 30.0881 21.6307 28.6776 22.1188C27.912 22.3845 26.9583 22.7932 26.7338 23.5009C26.5094 24.2086 26.6848 25.7681 27.0387 26.6023C27.3925 27.4384 28.31 28.5549 29.0814 29.0763C29.795 29.5606 31.1663 30.1575 33.0503 30.1457C34.2128 30.1389 35.4381 30.0271 36.4545 29.6841C36.8888 29.538 37.2867 29.3498 37.6229 29.1087C37.9493 28.8754 38.212 28.598 38.4247 28.3C38.9462 27.5688 39.1658 26.6993 39.2687 25.9583C39.4128 24.9144 39.5755 23.1294 38.9629 22.4384C38.7139 22.1571 38.3806 21.8963 37.7484 21.7013ZM18.9216 29.0773C19.692 28.5559 20.6095 27.4384 20.9614 26.6033C21.3162 25.7681 21.4927 24.2096 21.2672 23.5019C21.0428 22.7942 20.09 22.3845 19.3235 22.1198C17.9139 21.6317 15.5066 21.4209 15.5066 21.4209C13.7618 21.3337 12.5071 21.3562 11.5897 21.4513C10.8104 21.5337 10.2713 21.6699 9.88213 21.8395C9.48025 22.012 9.23422 22.2198 9.03916 22.4403C8.42751 23.1314 8.58826 24.9154 8.73235 25.9603C8.81273 26.5366 8.96368 27.1904 9.27146 27.7962C9.52142 28.2883 9.87625 28.7509 10.3811 29.1106C10.6114 29.2763 10.8741 29.4165 11.1535 29.537C12.2376 29.9968 13.6344 30.1399 14.9527 30.1477C16.8347 30.1575 18.207 29.5615 18.9216 29.0773ZM12.6826 20.2202C14.1647 20.2319 15.6565 20.3358 17.1445 20.5348C17.9727 20.6456 18.7981 20.7838 19.6185 20.9514C20.287 21.0955 20.8222 21.2288 21.2947 21.3464C22.3396 21.6082 23.0296 21.7787 24.004 21.7807C24.9753 21.7787 25.6634 21.6062 26.7074 21.3464C27.1798 21.2288 27.715 21.0955 28.3796 20.9524C29.1089 20.8024 29.8401 20.6799 30.5743 20.575C32.0338 20.3682 33.4982 20.2496 34.9548 20.2251C35.1567 20.2212 35.3606 20.2172 35.5635 20.2172C35.6743 20.2172 35.785 20.2182 35.8938 20.2192L35.8135 19.6144L35.7743 19.4919L33.9148 13.9253L29.2647 13.0147L23.8344 11.9541V11.9521H23.8305C23.8305 11.9521 23.8285 11.9521 23.8236 11.9531C23.8187 11.9521 23.8158 11.9521 23.8158 11.9521H23.8118V11.9551C23.608 11.9776 20.9202 12.504 18.3707 13.0068C15.9908 13.4754 13.7314 13.9263 13.7314 13.9263L11.8719 19.4929L11.8308 19.6154L11.7514 20.2261C11.9749 20.2212 12.2042 20.2182 12.4385 20.2182C12.5199 20.2172 12.6012 20.2202 12.6826 20.2202Z" fill="white"/>
<path d="M41.6702 20.8356C41.6516 20.8298 40.1499 20.4337 37.6053 20.2799L37.4632 18.9115L37.1603 18.0038L38.9668 16.0679C40.6077 14.3094 40.5116 11.555 38.7531 9.91516L38.4091 9.59365C36.6516 7.95377 33.8962 8.04983 32.2563 9.80734L30.6998 11.4756L23.8344 10.0396V10.0377H23.8295C23.8295 10.0377 23.8266 10.0377 23.8217 10.0387C23.8158 10.0377 23.8128 10.0377 23.8128 10.0377H23.8089V10.0406C23.557 10.0691 20.0136 10.814 16.9318 11.4658L15.385 9.80832C13.7471 8.04983 10.9917 7.95475 9.23424 9.59463L8.89019 9.91614C7.13268 11.557 7.03662 14.3104 8.6765 16.0689L10.484 18.0048L10.1801 18.9125L10.037 20.3034C7.711 20.473 6.34655 20.8307 6.33087 20.8366C6.09072 20.9042 5.99172 21.1473 6.00054 21.3591L6.28774 23.4155L6.41125 23.4812C6.80627 23.691 6.90723 24.0076 7.4434 25.8817L7.53848 26.2121C8.12268 28.246 8.61083 29.138 9.57633 29.831L11.2201 35.4995L20.3174 39.2184L23.8354 39.5752L27.3279 39.2184L36.7868 35.4995L38.0817 30.0574C38.0964 30.0486 38.1121 30.0398 38.1268 30.0309C39.2981 29.3017 39.8225 28.445 40.4626 26.2121L40.5587 25.8768C41.0939 24.0066 41.1938 23.691 41.5898 23.4812L41.7133 23.4155L41.9976 21.3865L41.9996 21.36C42.0074 21.1473 41.9094 20.9042 41.6702 20.8356ZM11.8298 19.6143L11.871 19.4918L13.7304 13.9252C13.7304 13.9252 15.9908 13.4743 18.3698 13.0058C20.9193 12.5019 23.607 11.9765 23.8109 11.954V11.952H23.8148C23.8148 11.952 23.8177 11.952 23.8226 11.953C23.8275 11.952 23.8295 11.952 23.8295 11.952H23.8334V11.955L29.2638 13.0156L33.9139 13.9262L35.7733 19.4927L35.8125 19.6153L35.8929 20.2201C35.7841 20.2191 35.6733 20.2181 35.5626 20.2181C35.3597 20.2181 35.1558 20.222 34.9539 20.2259C33.4982 20.2504 32.0338 20.3691 30.5733 20.5759C29.8391 20.6798 29.1079 20.8023 28.3786 20.9533C27.7141 21.0964 27.1789 21.2297 26.7064 21.3473C25.6635 21.608 24.9744 21.7796 24.003 21.7815C23.0287 21.7796 22.3396 21.608 21.2937 21.3473C20.8212 21.2297 20.2861 21.0964 19.6176 20.9523C18.7961 20.7847 17.9708 20.6465 17.1435 20.5357C15.6556 20.3367 14.1637 20.2318 12.6816 20.221C12.6003 20.221 12.5189 20.2181 12.4366 20.2181C12.2023 20.2181 11.972 20.221 11.7494 20.2259L11.8298 19.6143ZM11.1525 29.535C10.8731 29.4144 10.6104 29.2742 10.3801 29.1086C9.87529 28.7488 9.52046 28.2862 9.2705 27.7941C8.9637 27.1883 8.81177 26.5345 8.73139 25.9582C8.5873 24.9143 8.42557 23.1293 9.0382 22.4383C9.23326 22.2167 9.47929 22.0089 9.88117 21.8374C10.2703 21.6678 10.8094 21.5316 11.5887 21.4492C12.5071 21.3532 13.7608 21.3316 15.5056 21.4189C15.5056 21.4189 17.912 21.6296 19.3225 22.1177C20.089 22.3834 21.0428 22.7921 21.2663 23.4998C21.4917 24.2075 21.3163 25.767 20.9604 26.6012C20.6085 27.4373 19.6911 28.5538 18.9206 29.0752C18.2061 29.5595 16.8338 30.1564 14.9508 30.1446C13.6344 30.1388 12.2376 29.9947 11.1525 29.535ZM35.2205 34.6624L26.9044 38.0892L23.8334 38.4627L20.7409 38.0892L12.4248 34.6624L11.425 30.6259C12.4013 30.87 13.6118 31.0141 14.8361 31.0141C15.3948 31.0141 15.9359 30.9847 16.4466 30.9229C19.3794 30.5759 20.8467 28.7361 21.1114 28.3705C21.6946 27.5647 22.3513 26.1297 22.9169 24.8329C23.1169 24.3742 23.8991 24.3546 24.003 24.3536L24.0863 24.3555C24.3088 24.3693 24.9156 24.4408 25.0861 24.8329C25.6507 26.1307 26.3094 27.5667 26.8917 28.3705C27.1563 28.7361 28.6227 30.5769 31.5565 30.9229C32.0662 30.9847 32.6072 31.0141 33.166 31.0141C34.2373 31.0141 35.2979 30.9033 36.2007 30.7132L35.2205 34.6624ZM39.2687 25.9592C39.1658 26.7002 38.9462 27.5696 38.4248 28.3009C38.2111 28.5998 37.9494 28.8763 37.623 29.1095C37.2858 29.3507 36.8888 29.5389 36.4545 29.6849C35.4381 30.028 34.2128 30.1397 33.0503 30.1466C31.1663 30.1584 29.795 29.5614 29.0814 29.0772C28.31 28.5557 27.3925 27.4383 27.0387 26.6032C26.6858 25.768 26.5094 24.2095 26.7338 23.5018C26.9583 22.7941 27.9121 22.3844 28.6776 22.1197C30.0871 21.6316 32.4945 21.4208 32.4945 21.4208C34.0227 21.3453 35.1715 21.3522 36.0507 21.4189C36.7868 21.4767 37.3338 21.5747 37.7484 21.7021C38.3807 21.8972 38.7129 22.1579 38.9629 22.4402C39.5745 23.1303 39.4128 24.9143 39.2687 25.9592ZM24.2039 33.6303C24.3618 33.6048 24.5196 33.5783 24.6764 33.5509C25.3096 33.4401 25.9879 33.3244 26.576 33.0529C27.0456 32.8373 27.521 32.3501 27.3739 31.7904C27.2994 31.5042 27.0897 31.2738 26.8554 31.1033C26.6035 30.921 26.2702 30.8847 25.9703 30.8582C25.3018 30.8004 24.6195 30.8455 23.955 30.921C23.6491 30.9563 23.3355 30.8886 23.0287 30.8671C22.6836 30.8445 22.3425 30.8357 21.9985 30.8357C22.0916 30.8367 21.7769 30.8435 21.9651 30.8367C21.6348 30.8494 21.278 30.8641 20.9663 30.9837C20.6919 31.0886 20.4458 31.3278 20.3076 31.5836C20.0175 32.1266 20.3743 32.6755 20.8487 32.9608C21.1104 33.1166 21.4162 33.2058 21.7074 33.2852C22.0298 33.3754 22.3572 33.443 22.6866 33.5067C22.9238 33.5528 23.161 33.593 23.4011 33.6303V35.3329H19.9979V36.1357H27.6092V35.3329H24.2039V33.6303Z" fill="#454545"/>
</svg>
