<svg width="48" height="48" viewBox="0 0 48 48" fill="none" xmlns="http://www.w3.org/2000/svg">
<path d="M21.5432 8.82742C20.919 8.839 20.1378 9.22834 19.5791 9.09384C19.3561 9.04016 19.0835 9.01702 18.8166 9.03149C18.8119 9.03176 18.8072 9.03122 18.8025 9.03149C18.5312 9.04761 18.2664 9.10481 18.0712 9.22422C18.0632 9.22915 18.0539 9.23372 18.0457 9.23839C18.038 9.24973 18.0298 9.26001 18.0202 9.26957C17.7609 9.52887 17.1874 9.55258 16.9205 9.81942C16.7026 10.0374 16.5006 10.4547 16.2601 10.8284C16.2578 10.832 16.2568 10.8362 16.2545 10.8398C15.3988 11.8373 14.716 13.0648 14.4745 14.068C14.2761 14.8923 14.2788 16.0056 13.953 16.8258C13.8619 17.0551 13.4841 18.3248 13.7773 18.5717C13.977 18.7398 14.8282 18.8686 15.0782 18.5717C15.2128 18.4119 16.4467 18.0125 16.8327 17.5542C17.2871 17.0145 17.5216 16.0823 17.8332 15.2981C17.8827 15.1733 17.9466 15.0409 18.0202 14.9098C18.197 15.2521 18.3373 15.5316 18.4113 15.7034C18.5656 16.0609 18.7353 16.5553 18.8762 17.0837C18.5708 17.5514 18.6981 18.1914 18.9187 18.4838C18.0259 18.7618 18.4512 19.7222 18.417 19.7564C18.3582 19.8152 18.172 19.8938 18.0967 19.969C18.0036 20.0621 17.989 20.2563 17.989 20.397C17.989 20.5326 18.0062 20.6532 18.0316 20.7597C17.2192 22.8032 16.4525 25.361 15.4835 26.7401C15.2046 26.8673 14.9193 26.9765 14.5851 27.0433C13.9338 27.2062 12.2874 27.5289 10.9005 27.9957C10.8403 28.0757 10.7702 28.1543 10.6908 28.2337C10.5533 28.3712 10.2783 28.3712 10.1409 28.5087C10.034 28.6156 9.70078 28.4953 9.5939 28.6022C9.27673 28.9194 8.80859 29.0841 8.30997 29.3334C8.25465 29.3611 8.07739 29.2911 8.03504 29.3334C7.80853 29.56 7.40296 29.6906 7.21027 29.8833C6.83328 30.2603 6.51724 30.6699 6.11057 31.0765C5.70641 31.4807 6.53063 32.5935 6.66042 32.7232C7.04232 33.1052 7.74383 33.1661 8.12574 33.548C8.28641 33.7087 8.82509 33.4938 9.01854 33.6217C9.0685 33.6287 9.11317 33.6379 9.14325 33.6529C9.70593 33.9342 10.8097 34.1422 11.4759 34.3643C12.3939 34.6703 13.1222 35.488 14.0692 35.7247C14.7902 35.905 15.609 36.0009 16.3367 36.2434C16.6409 36.3448 17.0103 36.2752 17.306 36.3738C17.8589 36.5581 18.3582 36.7869 18.862 36.9548C19.0365 37.013 19.2671 36.9101 19.4459 36.9548C19.8481 37.0554 20.283 37.0846 20.6759 37.2156C21.3756 37.4488 22.3089 36.9824 23.0086 37.2156C23.4697 37.3693 26.3404 37.1233 26.5712 36.8925C26.741 36.7228 27.3864 36.9384 27.6086 36.8273C27.8014 36.7309 28.387 36.8255 28.5156 36.6969C28.8476 36.3649 29.5291 36.3503 30.0036 36.113C30.2031 36.0133 30.5107 36.1514 30.7178 36.0479C30.8369 35.9883 31.0789 36.0616 31.3413 36.1754C31.8408 36.1649 32.2251 36.113 32.7245 36.113C33.3181 36.113 34.1376 35.8312 35.0061 35.4045C35.9672 35.188 37.1419 34.938 37.197 34.883C37.6145 34.4654 38.7244 34.5856 39.1384 34.1716C39.4318 33.8782 39.8086 33.7593 40.1106 33.4573C40.3796 33.1883 40.7492 32.8803 41.1366 32.556C41.2041 32.368 41.3768 32.1911 41.5362 32.0317C41.6031 31.9648 42.075 30.5839 41.9897 30.4133C41.8336 30.101 41.5755 29.8427 41.2783 29.6027C41.1861 29.5711 41.1154 29.539 41.0828 29.5063C40.7653 29.1888 40.0045 29.1395 39.7223 28.8573C39.2679 28.4028 38.5846 27.9944 37.7695 27.7207C37.5988 27.6361 37.439 27.5461 37.3245 27.4316C37.1793 27.2865 36.3403 27.1011 36.0944 26.9782C35.9622 26.912 35.6744 27.0145 35.5758 26.9158C35.3364 26.6765 34.3333 26.5059 33.6088 26.2753C33.5031 26.282 33.3336 26.2013 33.3027 26.1704C33.2809 26.1486 32.7192 26.0659 32.5346 25.8813C32.5136 25.8603 32.4382 25.1078 32.4382 25.014C32.4382 24.9794 32.3543 24.84 32.4042 24.7901C32.412 24.7823 32.4195 24.7732 32.4269 24.7646C32.0915 22.698 31.8351 20.4161 31.5936 20.2127C31.235 19.9107 31.0357 18.2435 30.6413 17.9113C30.2289 17.564 29.9707 17.1842 29.6521 16.8881C29.6519 16.8872 29.6523 16.8862 29.6521 16.8853C29.5322 16.2264 29.3046 15.4862 29.2326 15.4256C29.1157 15.3272 29.2928 14.8807 29.1759 14.7823C28.8121 14.4759 28.3381 12.6747 27.9969 12.3873C27.5499 12.0109 27.3301 11.4267 26.9057 11.0693C25.857 10.1863 24.1151 8.8722 22.1894 8.97197C22.1067 8.94864 22.0261 8.92058 21.9485 8.88978C21.8261 8.84114 21.6873 8.82475 21.5432 8.82742V8.82742Z" fill="#3C6991"/>
<path d="M21.1275 20.2636C20.9658 20.2344 20.8077 20.2327 20.6836 20.2739C20.477 20.3424 20.1439 20.1801 19.9282 20.219C19.1125 20.3662 18.473 20.5872 18.3629 20.8614C19.5735 20.5143 20.9175 21.289 21.468 22.0251C21.6969 22.331 21.3439 22.7948 21.4685 23.1702C21.4967 23.2551 21.5193 23.7994 21.4213 23.8726C21.2164 24.0259 21.2368 24.5605 21.0674 24.8045C20.6687 25.3788 20.321 25.7984 19.9824 26.2862C19.6331 26.7893 18.6994 26.8901 18.1782 27.0631C18.063 27.1013 17.9181 27.0218 17.7967 27.0621C17.768 27.0717 17.7346 27.0733 17.7012 27.0686C17.7129 27.0818 17.7264 27.0945 17.7361 27.1074C17.78 27.1662 17.9944 27.1102 18.0571 27.1537C18.462 27.4348 20.0645 27.327 20.5089 27.1795C20.7853 27.0878 21.0417 26.9522 21.3182 26.8605C21.6727 26.7428 22.0217 26.1915 22.2763 25.9076C23.1521 24.9313 23.5523 23.2404 23.1191 21.9355C22.9014 21.2795 22.3315 20.8864 21.8463 20.5496C21.6804 20.4344 21.3971 20.3122 21.1275 20.2636L21.1275 20.2636Z" fill="#E6B35A"/>
<path d="M23.0808 19.003C23.0286 19.0013 23.0213 19.5118 23.0173 19.7551C22.9928 19.7566 22.9939 19.7872 23.0005 19.822C22.7373 19.9389 22.1643 20.173 22.2082 20.2198C22.2102 20.2209 22.2104 20.2224 22.2115 20.2232C22.1907 20.2242 22.169 20.2312 22.168 20.2599C22.1659 20.2977 22.2439 20.262 22.2817 20.2633C22.3427 20.2653 22.8756 20.4618 23.0873 20.5508C23.1136 20.7521 23.191 20.8723 23.191 21.1024C23.191 21.2458 23.2193 21.4434 23.2278 21.4434C23.2309 21.4434 23.2367 21.4389 23.241 21.4367C23.2473 21.4615 23.2543 21.4763 23.2644 21.4667C23.3061 21.4278 23.3816 21.3233 23.4583 21.206C23.4617 21.2009 23.4652 21.1977 23.4683 21.1926C23.6034 21.0253 23.7577 20.8111 23.8895 20.6176C24.1451 20.6548 24.3792 20.6845 24.4378 20.6845C24.4659 20.6845 25.4371 20.8514 25.1565 20.5708C25.1395 20.5537 25.1196 20.5392 25.0997 20.524C25.1059 20.5191 25.1095 20.514 25.1097 20.5073C25.1117 20.4531 24.5696 20.2039 24.4812 20.1095C24.4385 20.0639 24.3767 20.0347 24.3341 19.9891C24.3229 19.9772 24.344 19.9437 24.3775 19.8955V19.8922C24.4529 19.8089 24.5334 19.723 24.5915 19.6649C24.6193 19.637 24.7763 19.3434 24.6274 19.3627C24.527 19.3758 24.1989 19.3965 23.7693 19.5223C23.7693 19.5223 23.6533 19.3706 23.6525 19.3711C23.5592 19.3329 23.2949 19.01 23.0804 19.0029L23.0808 19.003Z" fill="#E6B35A"/>
<path d="M20.6542 18.9279C20.6233 18.9429 20.5763 19.0036 20.5614 18.9727C20.5465 18.9418 20.6851 18.913 20.6542 18.9279C20.5619 18.9725 20.2048 19.2941 20.3364 19.3958C20.4446 19.4794 20.8461 19.323 21.0164 19.3825C21.0418 19.3914 21.3247 19.8255 21.369 19.6987C21.4413 19.4918 21.3518 19.1402 21.3541 19.1339C21.3874 19.0384 21.6487 19.0776 21.7125 19.0468C21.7653 19.0214 21.8723 18.9763 21.887 18.9341C21.8909 18.9226 21.8938 18.8888 21.899 18.8997C21.9034 18.9086 21.8293 18.8367 21.7391 18.8052C21.6042 18.7581 21.4677 18.7876 21.3711 18.7539C21.3265 18.7383 21.3802 18.4761 21.364 18.4427C21.3109 18.3325 21.2773 18.2034 21.2865 18.2226C21.3129 18.2773 21.1724 18.2761 21.1353 18.3242C21.0891 18.384 20.9679 18.5868 20.8896 18.5856C20.7957 18.5842 20.4196 18.4947 20.3944 18.567C20.3923 18.5711 20.6288 18.8051 20.6542 18.9279L20.6542 18.9279Z" fill="#E6B35A"/>
<path d="M24.2903 22.5758C24.2652 22.5524 24.1915 22.5308 24.2148 22.5057C24.2382 22.4805 24.3155 22.5992 24.2903 22.5758C24.2152 22.5061 23.7855 22.2908 23.7388 22.4504C23.7004 22.5817 23.9924 22.8984 23.9991 23.0788C24.0012 23.1057 23.699 23.5274 23.8333 23.5224C24.0522 23.5143 24.347 23.3028 24.3537 23.3026C24.4547 23.2988 24.5135 23.5564 24.5655 23.6046C24.6084 23.6445 24.6893 23.7277 24.734 23.726C24.7462 23.7255 24.7787 23.7157 24.7704 23.7245C24.7638 23.7318 24.8036 23.6367 24.8001 23.5412C24.7947 23.3984 24.7176 23.2821 24.7138 23.1798C24.7117 23.1326 24.9757 23.087 25.001 23.0598C25.0842 22.9702 25.1922 22.8917 25.1776 22.9074C25.1363 22.9519 25.0862 22.8206 25.0279 22.8036C24.9554 22.7823 24.7224 22.7434 24.6949 22.6701C24.6619 22.5821 24.6082 22.1993 24.5317 22.2022C24.5273 22.2023 24.3954 22.5072 24.2903 22.5757V22.5758Z" fill="#E6B35A"/>
<path d="M32.5574 25.9668C32.4841 26.2187 32.025 27.0263 31.8318 27.2196C31.5832 27.4681 31.3695 27.7272 31.1516 27.9451C30.9971 28.0995 30.5564 28.495 30.426 28.6254C30.1425 28.9089 29.9763 28.8029 29.6551 29.1242C29.4958 29.2834 29.1753 29.2866 29.0202 29.4416C28.8799 29.5819 27.7547 29.6662 27.4783 29.8044C27.4115 29.8379 27.2117 29.7536 27.1609 29.8044C26.9624 30.0029 25.3936 30.0752 25.347 30.1219C25.1068 30.362 24.4673 30.0855 24.1225 30.2579C23.8168 30.4108 23.2098 30.3033 22.8528 30.3033C22.6551 30.3033 22.1297 30.2995 21.5887 30.2862C21.461 30.2682 21.3604 30.2538 21.3563 30.2579C21.3536 30.2606 21.3413 30.2732 21.3336 30.2806C21.232 30.2774 21.1341 30.2732 21.036 30.2692C20.9749 30.246 20.9101 30.2316 20.8575 30.2579C20.855 30.2591 20.8515 30.2596 20.849 30.2607C20.4268 30.2403 20.0823 30.2104 19.9958 30.1672C19.641 29.9898 19.2599 29.9405 18.8168 29.9405C18.1233 29.9405 16.5876 29.1207 16.0505 28.8521C15.9683 28.811 15.7401 28.5718 15.6169 28.5063C15.6159 28.4589 15.6142 28.4158 15.597 28.3986C15.4707 28.2722 15.4153 27.9899 15.3249 27.8091C15.2873 27.7339 15.3249 27.4581 15.3249 27.4916C15.3249 27.4931 15.4161 27.1289 15.4156 27.1289C15.3379 27.1289 14.9315 27.6583 14.7808 27.8091C14.7794 27.8105 14.7836 27.8187 14.7864 27.8261C14.7015 27.9432 14.6419 28.118 14.6419 28.3816C14.6419 29.2804 15.1376 29.328 15.6027 29.7931C15.7169 29.9073 15.9613 29.8314 16.0505 29.9206C16.1416 30.0117 16.2752 30.0925 16.4331 30.1644C16.2356 30.2802 15.855 30.3089 15.7302 30.4336C15.6082 30.5556 15.0425 30.9064 14.8318 31.0118C14.7922 31.0316 14.6005 31.0532 14.5767 31.077C13.3787 32.275 12.0267 33.0488 10.9205 34.155C10.8273 34.2482 10.7929 35.4645 10.7929 35.694C10.7929 36.0947 10.6568 36.5188 10.9205 36.7824C11.0317 36.8936 11.4005 36.8146 11.4987 36.9128C11.52 36.9341 11.7881 37.1335 11.8189 37.1027C11.936 36.9857 11.7537 36.3738 11.7537 36.2071C11.7537 35.3313 11.8483 34.446 12.3971 33.8971C13.4555 32.8387 14.9646 32.3557 15.923 31.3973C16.2047 31.1156 16.7209 30.9655 17.0964 30.6575C17.0832 30.7479 17.0986 30.8329 17.1644 30.9041C17.2082 30.9514 17.3641 30.8578 17.4195 30.8871C17.7961 31.0868 18.9437 31.5149 19.2816 31.1025C19.3429 31.219 19.3914 31.3371 19.4517 31.3973C19.6766 31.6222 19.5007 32.7078 19.3865 32.9363C18.9555 33.7983 18.7282 36.2872 18.3605 36.6549C18.297 36.7184 18.4366 37.323 18.488 37.4258C18.6216 37.693 18.3902 38.2888 18.488 38.3866C18.5842 38.4828 18.5222 38.7382 18.6184 38.8344C18.706 38.922 19.1062 38.812 19.1937 38.8996C19.2285 38.9343 19.6847 39.2448 19.7719 39.1575C19.8442 39.0853 19.574 38.2516 19.514 38.1315C19.4623 38.0281 19.6533 36.1301 19.7067 36.0767C19.7816 36.0019 19.6319 35.7037 19.7067 35.6289C19.8524 35.4832 20.027 32.4643 20.027 32.0378C20.027 31.9658 20.211 31.5161 20.0922 31.3973C20.0916 31.3966 19.9859 31.154 19.8428 30.9183C20.0542 30.934 20.2326 30.9595 20.2849 31.0118C20.3791 31.1059 22.2765 31.0118 22.592 31.0118C23.845 31.0118 25.816 30.9147 26.5685 30.7539C26.8685 30.6898 27.5799 30.6337 27.98 30.4336C28.2123 30.3175 29.0303 30.2381 29.1732 30.2012C29.4787 30.1225 30.4603 29.8863 30.7349 29.6117C30.9386 29.408 31.6349 28.7025 31.8913 28.5743C32.1803 28.4298 32.3255 27.9165 32.495 27.6787C32.5168 27.5027 32.9905 27.0428 32.8975 26.8568C32.792 26.4273 32.726 25.9833 32.5574 25.9668L32.5574 25.9668Z" fill="#E6B35A"/>
</svg>
